<svg xmlns="http://www.w3.org/2000/svg" xmlns:xlink="http://www.w3.org/1999/xlink" width="215pt" height="400" viewBox="0 0 215.03 299.65"><g id="graph0" class="graph" transform="scale(1 1) rotate(0) translate(4 295.6468)"><title>cluster</title><polygon fill="#fff" stroke="transparent" points="-4 4 -4 -295.647 211.028 -295.647 211.028 4 -4 4"/><g id="node1" class="node"><title>1</title><ellipse cx="110.447" cy="-243.564" fill="none" stroke="#000" rx="45.924" ry="48.167"/><text x="110.447" y="-262.363" fill="#000" font-family="Times,serif" font-size="14" text-anchor="middle">#1</text><text x="110.447" y="-247.363" fill="#000" font-family="Times,serif" font-size="14" text-anchor="middle">c = 10</text><text x="110.447" y="-232.363" fill="#000" font-family="Times,serif" font-size="14" text-anchor="middle">a0 = -1</text><text x="110.447" y="-217.363" fill="#000" font-family="Times,serif" font-size="14" text-anchor="middle">if c &gt; 0:</text></g><g id="node2" class="node"><title>2</title><ellipse cx="54.447" cy="-117.61" fill="none" stroke="#000" rx="54.395" ry="26.741"/><text x="54.447" y="-121.41" fill="#000" font-family="Times,serif" font-size="14" text-anchor="middle">#2</text><text x="54.447" y="-106.41" fill="#000" font-family="Times,serif" font-size="14" text-anchor="middle">a2 = a1+1</text></g><g id="edge2" class="edge"><title>1-&gt;2</title><path fill="none" stroke="#000" d="M91.0183,-199.8646C84.2289,-184.5941 76.6954,-167.65 70.2389,-153.1282"/><polygon fill="#000" stroke="#000" points="73.431 -151.693 66.17 -143.977 67.035 -154.536 73.431 -151.693"/><text x="95.947" y="-166.28" fill="#000" font-family="Times,serif" font-size="14" text-anchor="middle">c &gt; 0</text></g><g id="node4" class="node"><title>4</title><ellipse cx="166.447" cy="-117.61" fill="none" stroke="#000" rx="39.696" ry="26.741"/><text x="166.447" y="-121.41" fill="#000" font-family="Times,serif" font-size="14" text-anchor="middle">#4</text><text x="166.447" y="-106.41" fill="#000" font-family="Times,serif" font-size="14" text-anchor="middle">a3 = 0</text></g><g id="edge4" class="edge"><title>1-&gt;4</title><path fill="none" stroke="#000" d="M129.8761,-199.8646C136.7174,-184.4775 144.3141,-167.3913 150.8033,-152.796"/><polygon fill="#000" stroke="#000" points="154.024 -154.167 154.889 -143.607 147.628 -151.323 154.024 -154.167"/><text x="167.447" y="-166.28" fill="#000" font-family="Times,serif" font-size="14" text-anchor="middle">(c &lt;= 0)</text></g><g id="node3" class="node"><title>3</title><ellipse cx="109.447" cy="-26.87" fill="none" stroke="#000" rx="97.662" ry="26.741"/><text x="109.447" y="-30.67" fill="#000" font-family="Times,serif" font-size="14" text-anchor="middle">#3</text><text x="109.447" y="-15.67" fill="#000" font-family="Times,serif" font-size="14" text-anchor="middle">total = c + φ(a2,a3）</text></g><g id="edge1" class="edge"><title>2-&gt;3</title><path fill="none" stroke="#000" d="M70.0609,-91.8504C75.6048,-82.704 81.9467,-72.241 87.898,-62.4223"/><polygon fill="#000" stroke="#000" points="91.029 -64.008 93.22 -53.643 85.043 -60.38 91.029 -64.008"/></g><g id="edge3" class="edge"><title>4-&gt;3</title><path fill="none" stroke="#000" d="M150.8717,-92.815C144.9571,-83.3993 138.1002,-72.4836 131.688,-62.2759"/><polygon fill="#000" stroke="#000" points="134.486 -60.149 126.202 -53.543 128.558 -63.873 134.486 -60.149"/></g></g></svg>